<mxfile host="Electron" agent="Mozilla/5.0 (Windows NT 10.0; Win64; x64) AppleWebKit/537.36 (KHTML, like Gecko) draw.io/26.0.9 Chrome/128.0.6613.186 Electron/32.2.5 Safari/537.36" version="26.0.9">
  <diagram name="Страница — 1" id="x0e22HafHFJN26HA8o0H">
    <mxGraphModel dx="1430" dy="830" grid="1" gridSize="10" guides="1" tooltips="1" connect="1" arrows="1" fold="1" page="1" pageScale="1" pageWidth="827" pageHeight="1169" math="0" shadow="0">
      <root>
        <mxCell id="0" />
        <mxCell id="1" parent="0" />
        <mxCell id="7iAwqCuJv2nSnCTRi0Pb-1" value="&lt;span style=&quot;line-height: 115%;&quot;&gt;&lt;font&gt;Airport&lt;/font&gt;&lt;/span&gt;" style="swimlane;fontStyle=1;align=center;verticalAlign=top;childLayout=stackLayout;horizontal=1;startSize=26;horizontalStack=0;resizeParent=1;resizeParentMax=0;resizeLast=0;collapsible=1;marginBottom=0;whiteSpace=wrap;html=1;" parent="1" vertex="1">
          <mxGeometry x="350" y="510" width="180" height="190" as="geometry" />
        </mxCell>
        <mxCell id="7iAwqCuJv2nSnCTRi0Pb-2" value="- name: str" style="text;strokeColor=none;fillColor=none;align=left;verticalAlign=top;spacingLeft=4;spacingRight=4;overflow=hidden;rotatable=0;points=[[0,0.5],[1,0.5]];portConstraint=eastwest;whiteSpace=wrap;html=1;" parent="7iAwqCuJv2nSnCTRi0Pb-1" vertex="1">
          <mxGeometry y="26" width="180" height="26" as="geometry" />
        </mxCell>
        <mxCell id="7iAwqCuJv2nSnCTRi0Pb-38" value="- address: str" style="text;strokeColor=none;fillColor=none;align=left;verticalAlign=top;spacingLeft=4;spacingRight=4;overflow=hidden;rotatable=0;points=[[0,0.5],[1,0.5]];portConstraint=eastwest;whiteSpace=wrap;html=1;" parent="7iAwqCuJv2nSnCTRi0Pb-1" vertex="1">
          <mxGeometry y="52" width="180" height="26" as="geometry" />
        </mxCell>
        <mxCell id="7iAwqCuJv2nSnCTRi0Pb-5" value="- empoloyees: list[Employee]" style="text;strokeColor=none;fillColor=none;align=left;verticalAlign=top;spacingLeft=4;spacingRight=4;overflow=hidden;rotatable=0;points=[[0,0.5],[1,0.5]];portConstraint=eastwest;whiteSpace=wrap;html=1;" parent="7iAwqCuJv2nSnCTRi0Pb-1" vertex="1">
          <mxGeometry y="78" width="180" height="26" as="geometry" />
        </mxCell>
        <mxCell id="7iAwqCuJv2nSnCTRi0Pb-6" value="- transports: list[ATransport]" style="text;strokeColor=none;fillColor=none;align=left;verticalAlign=top;spacingLeft=4;spacingRight=4;overflow=hidden;rotatable=0;points=[[0,0.5],[1,0.5]];portConstraint=eastwest;whiteSpace=wrap;html=1;" parent="7iAwqCuJv2nSnCTRi0Pb-1" vertex="1">
          <mxGeometry y="104" width="180" height="26" as="geometry" />
        </mxCell>
        <mxCell id="7iAwqCuJv2nSnCTRi0Pb-8" value="- passengers: list[Pasenger]" style="text;strokeColor=none;fillColor=none;align=left;verticalAlign=top;spacingLeft=4;spacingRight=4;overflow=hidden;rotatable=0;points=[[0,0.5],[1,0.5]];portConstraint=eastwest;whiteSpace=wrap;html=1;" parent="7iAwqCuJv2nSnCTRi0Pb-1" vertex="1">
          <mxGeometry y="130" width="180" height="26" as="geometry" />
        </mxCell>
        <mxCell id="7iAwqCuJv2nSnCTRi0Pb-3" value="" style="line;strokeWidth=1;fillColor=none;align=left;verticalAlign=middle;spacingTop=-1;spacingLeft=3;spacingRight=3;rotatable=0;labelPosition=right;points=[];portConstraint=eastwest;strokeColor=inherit;" parent="7iAwqCuJv2nSnCTRi0Pb-1" vertex="1">
          <mxGeometry y="156" width="180" height="8" as="geometry" />
        </mxCell>
        <mxCell id="7iAwqCuJv2nSnCTRi0Pb-4" value="+ Flight(): void" style="text;strokeColor=none;fillColor=none;align=left;verticalAlign=top;spacingLeft=4;spacingRight=4;overflow=hidden;rotatable=0;points=[[0,0.5],[1,0.5]];portConstraint=eastwest;whiteSpace=wrap;html=1;" parent="7iAwqCuJv2nSnCTRi0Pb-1" vertex="1">
          <mxGeometry y="164" width="180" height="26" as="geometry" />
        </mxCell>
        <mxCell id="7iAwqCuJv2nSnCTRi0Pb-9" value="&lt;u&gt;&lt;i&gt;ATransport&lt;/i&gt;&lt;/u&gt;" style="swimlane;fontStyle=1;align=center;verticalAlign=top;childLayout=stackLayout;horizontal=1;startSize=26;horizontalStack=0;resizeParent=1;resizeParentMax=0;resizeLast=0;collapsible=1;marginBottom=0;whiteSpace=wrap;html=1;" parent="1" vertex="1">
          <mxGeometry x="150" y="240" width="160" height="112" as="geometry" />
        </mxCell>
        <mxCell id="7iAwqCuJv2nSnCTRi0Pb-10" value="- name: str" style="text;strokeColor=none;fillColor=none;align=left;verticalAlign=top;spacingLeft=4;spacingRight=4;overflow=hidden;rotatable=0;points=[[0,0.5],[1,0.5]];portConstraint=eastwest;whiteSpace=wrap;html=1;" parent="7iAwqCuJv2nSnCTRi0Pb-9" vertex="1">
          <mxGeometry y="26" width="160" height="26" as="geometry" />
        </mxCell>
        <mxCell id="7iAwqCuJv2nSnCTRi0Pb-13" value="- description: str" style="text;strokeColor=none;fillColor=none;align=left;verticalAlign=top;spacingLeft=4;spacingRight=4;overflow=hidden;rotatable=0;points=[[0,0.5],[1,0.5]];portConstraint=eastwest;whiteSpace=wrap;html=1;" parent="7iAwqCuJv2nSnCTRi0Pb-9" vertex="1">
          <mxGeometry y="52" width="160" height="26" as="geometry" />
        </mxCell>
        <mxCell id="7iAwqCuJv2nSnCTRi0Pb-11" value="" style="line;strokeWidth=1;fillColor=none;align=left;verticalAlign=middle;spacingTop=-1;spacingLeft=3;spacingRight=3;rotatable=0;labelPosition=right;points=[];portConstraint=eastwest;strokeColor=inherit;" parent="7iAwqCuJv2nSnCTRi0Pb-9" vertex="1">
          <mxGeometry y="78" width="160" height="8" as="geometry" />
        </mxCell>
        <mxCell id="7iAwqCuJv2nSnCTRi0Pb-12" value="+ move(): void" style="text;strokeColor=none;fillColor=none;align=left;verticalAlign=top;spacingLeft=4;spacingRight=4;overflow=hidden;rotatable=0;points=[[0,0.5],[1,0.5]];portConstraint=eastwest;whiteSpace=wrap;html=1;" parent="7iAwqCuJv2nSnCTRi0Pb-9" vertex="1">
          <mxGeometry y="86" width="160" height="26" as="geometry" />
        </mxCell>
        <mxCell id="7iAwqCuJv2nSnCTRi0Pb-14" value="Employee" style="swimlane;fontStyle=1;align=center;verticalAlign=top;childLayout=stackLayout;horizontal=1;startSize=26;horizontalStack=0;resizeParent=1;resizeParentMax=0;resizeLast=0;collapsible=1;marginBottom=0;whiteSpace=wrap;html=1;" parent="1" vertex="1">
          <mxGeometry x="390" y="214" width="160" height="138" as="geometry" />
        </mxCell>
        <mxCell id="7iAwqCuJv2nSnCTRi0Pb-15" value="- name: str" style="text;strokeColor=none;fillColor=none;align=left;verticalAlign=top;spacingLeft=4;spacingRight=4;overflow=hidden;rotatable=0;points=[[0,0.5],[1,0.5]];portConstraint=eastwest;whiteSpace=wrap;html=1;" parent="7iAwqCuJv2nSnCTRi0Pb-14" vertex="1">
          <mxGeometry y="26" width="160" height="26" as="geometry" />
        </mxCell>
        <mxCell id="7iAwqCuJv2nSnCTRi0Pb-18" value="- age: int" style="text;strokeColor=none;fillColor=none;align=left;verticalAlign=top;spacingLeft=4;spacingRight=4;overflow=hidden;rotatable=0;points=[[0,0.5],[1,0.5]];portConstraint=eastwest;whiteSpace=wrap;html=1;" parent="7iAwqCuJv2nSnCTRi0Pb-14" vertex="1">
          <mxGeometry y="52" width="160" height="26" as="geometry" />
        </mxCell>
        <mxCell id="7iAwqCuJv2nSnCTRi0Pb-19" value="- posts: list[Post]" style="text;strokeColor=none;fillColor=none;align=left;verticalAlign=top;spacingLeft=4;spacingRight=4;overflow=hidden;rotatable=0;points=[[0,0.5],[1,0.5]];portConstraint=eastwest;whiteSpace=wrap;html=1;" parent="7iAwqCuJv2nSnCTRi0Pb-14" vertex="1">
          <mxGeometry y="78" width="160" height="26" as="geometry" />
        </mxCell>
        <mxCell id="7iAwqCuJv2nSnCTRi0Pb-16" value="" style="line;strokeWidth=1;fillColor=none;align=left;verticalAlign=middle;spacingTop=-1;spacingLeft=3;spacingRight=3;rotatable=0;labelPosition=right;points=[];portConstraint=eastwest;strokeColor=inherit;" parent="7iAwqCuJv2nSnCTRi0Pb-14" vertex="1">
          <mxGeometry y="104" width="160" height="8" as="geometry" />
        </mxCell>
        <mxCell id="7iAwqCuJv2nSnCTRi0Pb-17" value="+ work(): void" style="text;strokeColor=none;fillColor=none;align=left;verticalAlign=top;spacingLeft=4;spacingRight=4;overflow=hidden;rotatable=0;points=[[0,0.5],[1,0.5]];portConstraint=eastwest;whiteSpace=wrap;html=1;" parent="7iAwqCuJv2nSnCTRi0Pb-14" vertex="1">
          <mxGeometry y="112" width="160" height="26" as="geometry" />
        </mxCell>
        <mxCell id="7iAwqCuJv2nSnCTRi0Pb-20" value="&lt;b&gt;Post&lt;/b&gt;" style="swimlane;fontStyle=0;childLayout=stackLayout;horizontal=1;startSize=26;fillColor=none;horizontalStack=0;resizeParent=1;resizeParentMax=0;resizeLast=0;collapsible=1;marginBottom=0;whiteSpace=wrap;html=1;" parent="1" vertex="1">
          <mxGeometry x="390" y="40" width="140" height="78" as="geometry" />
        </mxCell>
        <mxCell id="7iAwqCuJv2nSnCTRi0Pb-21" value="- title: str" style="text;strokeColor=none;fillColor=none;align=left;verticalAlign=top;spacingLeft=4;spacingRight=4;overflow=hidden;rotatable=0;points=[[0,0.5],[1,0.5]];portConstraint=eastwest;whiteSpace=wrap;html=1;" parent="7iAwqCuJv2nSnCTRi0Pb-20" vertex="1">
          <mxGeometry y="26" width="140" height="26" as="geometry" />
        </mxCell>
        <mxCell id="7iAwqCuJv2nSnCTRi0Pb-22" value="- salary: int" style="text;strokeColor=none;fillColor=none;align=left;verticalAlign=top;spacingLeft=4;spacingRight=4;overflow=hidden;rotatable=0;points=[[0,0.5],[1,0.5]];portConstraint=eastwest;whiteSpace=wrap;html=1;" parent="7iAwqCuJv2nSnCTRi0Pb-20" vertex="1">
          <mxGeometry y="52" width="140" height="26" as="geometry" />
        </mxCell>
        <mxCell id="7iAwqCuJv2nSnCTRi0Pb-24" value="Airplane" style="swimlane;fontStyle=1;align=center;verticalAlign=top;childLayout=stackLayout;horizontal=1;startSize=26;horizontalStack=0;resizeParent=1;resizeParentMax=0;resizeLast=0;collapsible=1;marginBottom=0;whiteSpace=wrap;html=1;" parent="1" vertex="1">
          <mxGeometry x="90" y="118" width="160" height="86" as="geometry" />
        </mxCell>
        <mxCell id="UTytQ0ZPU029c6YnH5y8-4" value="- type: str" style="text;strokeColor=none;fillColor=none;align=left;verticalAlign=top;spacingLeft=4;spacingRight=4;overflow=hidden;rotatable=0;points=[[0,0.5],[1,0.5]];portConstraint=eastwest;whiteSpace=wrap;html=1;" vertex="1" parent="7iAwqCuJv2nSnCTRi0Pb-24">
          <mxGeometry y="26" width="160" height="26" as="geometry" />
        </mxCell>
        <mxCell id="UTytQ0ZPU029c6YnH5y8-2" value="" style="line;strokeWidth=1;fillColor=none;align=left;verticalAlign=middle;spacingTop=-1;spacingLeft=3;spacingRight=3;rotatable=0;labelPosition=right;points=[];portConstraint=eastwest;strokeColor=inherit;" vertex="1" parent="7iAwqCuJv2nSnCTRi0Pb-24">
          <mxGeometry y="52" width="160" height="8" as="geometry" />
        </mxCell>
        <mxCell id="7iAwqCuJv2nSnCTRi0Pb-27" value="+ move(): void" style="text;strokeColor=none;fillColor=none;align=left;verticalAlign=top;spacingLeft=4;spacingRight=4;overflow=hidden;rotatable=0;points=[[0,0.5],[1,0.5]];portConstraint=eastwest;whiteSpace=wrap;html=1;" parent="7iAwqCuJv2nSnCTRi0Pb-24" vertex="1">
          <mxGeometry y="60" width="160" height="26" as="geometry" />
        </mxCell>
        <mxCell id="7iAwqCuJv2nSnCTRi0Pb-28" value="Bus" style="swimlane;fontStyle=1;align=center;verticalAlign=top;childLayout=stackLayout;horizontal=1;startSize=26;horizontalStack=0;resizeParent=1;resizeParentMax=0;resizeLast=0;collapsible=1;marginBottom=0;whiteSpace=wrap;html=1;" parent="1" vertex="1">
          <mxGeometry x="90" y="10" width="160" height="86" as="geometry" />
        </mxCell>
        <mxCell id="UTytQ0ZPU029c6YnH5y8-3" value="- type: str" style="text;strokeColor=none;fillColor=none;align=left;verticalAlign=top;spacingLeft=4;spacingRight=4;overflow=hidden;rotatable=0;points=[[0,0.5],[1,0.5]];portConstraint=eastwest;whiteSpace=wrap;html=1;" vertex="1" parent="7iAwqCuJv2nSnCTRi0Pb-28">
          <mxGeometry y="26" width="160" height="26" as="geometry" />
        </mxCell>
        <mxCell id="7iAwqCuJv2nSnCTRi0Pb-30" value="" style="line;strokeWidth=1;fillColor=none;align=left;verticalAlign=middle;spacingTop=-1;spacingLeft=3;spacingRight=3;rotatable=0;labelPosition=right;points=[];portConstraint=eastwest;strokeColor=inherit;" parent="7iAwqCuJv2nSnCTRi0Pb-28" vertex="1">
          <mxGeometry y="52" width="160" height="8" as="geometry" />
        </mxCell>
        <mxCell id="7iAwqCuJv2nSnCTRi0Pb-31" value="+ move(): void" style="text;strokeColor=none;fillColor=none;align=left;verticalAlign=top;spacingLeft=4;spacingRight=4;overflow=hidden;rotatable=0;points=[[0,0.5],[1,0.5]];portConstraint=eastwest;whiteSpace=wrap;html=1;" parent="7iAwqCuJv2nSnCTRi0Pb-28" vertex="1">
          <mxGeometry y="60" width="160" height="26" as="geometry" />
        </mxCell>
        <mxCell id="7iAwqCuJv2nSnCTRi0Pb-32" value="&lt;b&gt;Passenger&lt;/b&gt;" style="swimlane;fontStyle=0;childLayout=stackLayout;horizontal=1;startSize=26;fillColor=none;horizontalStack=0;resizeParent=1;resizeParentMax=0;resizeLast=0;collapsible=1;marginBottom=0;whiteSpace=wrap;html=1;" parent="1" vertex="1">
          <mxGeometry x="630" y="248" width="140" height="104" as="geometry" />
        </mxCell>
        <mxCell id="7iAwqCuJv2nSnCTRi0Pb-33" value="- name: str" style="text;strokeColor=none;fillColor=none;align=left;verticalAlign=top;spacingLeft=4;spacingRight=4;overflow=hidden;rotatable=0;points=[[0,0.5],[1,0.5]];portConstraint=eastwest;whiteSpace=wrap;html=1;" parent="7iAwqCuJv2nSnCTRi0Pb-32" vertex="1">
          <mxGeometry y="26" width="140" height="26" as="geometry" />
        </mxCell>
        <mxCell id="7iAwqCuJv2nSnCTRi0Pb-34" value="- data: str" style="text;strokeColor=none;fillColor=none;align=left;verticalAlign=top;spacingLeft=4;spacingRight=4;overflow=hidden;rotatable=0;points=[[0,0.5],[1,0.5]];portConstraint=eastwest;whiteSpace=wrap;html=1;" parent="7iAwqCuJv2nSnCTRi0Pb-32" vertex="1">
          <mxGeometry y="52" width="140" height="26" as="geometry" />
        </mxCell>
        <mxCell id="7iAwqCuJv2nSnCTRi0Pb-35" value="- ticket_ID: int" style="text;strokeColor=none;fillColor=none;align=left;verticalAlign=top;spacingLeft=4;spacingRight=4;overflow=hidden;rotatable=0;points=[[0,0.5],[1,0.5]];portConstraint=eastwest;whiteSpace=wrap;html=1;" parent="7iAwqCuJv2nSnCTRi0Pb-32" vertex="1">
          <mxGeometry y="78" width="140" height="26" as="geometry" />
        </mxCell>
        <mxCell id="7iAwqCuJv2nSnCTRi0Pb-36" value="&lt;b&gt;Airline&lt;/b&gt;" style="swimlane;fontStyle=0;childLayout=stackLayout;horizontal=1;startSize=26;fillColor=none;horizontalStack=0;resizeParent=1;resizeParentMax=0;resizeLast=0;collapsible=1;marginBottom=0;whiteSpace=wrap;html=1;" parent="1" vertex="1">
          <mxGeometry x="350" y="800" width="180" height="104" as="geometry" />
        </mxCell>
        <mxCell id="7iAwqCuJv2nSnCTRi0Pb-37" value="- name: str" style="text;strokeColor=none;fillColor=none;align=left;verticalAlign=top;spacingLeft=4;spacingRight=4;overflow=hidden;rotatable=0;points=[[0,0.5],[1,0.5]];portConstraint=eastwest;whiteSpace=wrap;html=1;" parent="7iAwqCuJv2nSnCTRi0Pb-36" vertex="1">
          <mxGeometry y="26" width="180" height="26" as="geometry" />
        </mxCell>
        <mxCell id="7iAwqCuJv2nSnCTRi0Pb-7" value="- airports: list[Airport]" style="text;strokeColor=none;fillColor=none;align=left;verticalAlign=top;spacingLeft=4;spacingRight=4;overflow=hidden;rotatable=0;points=[[0,0.5],[1,0.5]];portConstraint=eastwest;whiteSpace=wrap;html=1;" parent="7iAwqCuJv2nSnCTRi0Pb-36" vertex="1">
          <mxGeometry y="52" width="180" height="26" as="geometry" />
        </mxCell>
        <mxCell id="7iAwqCuJv2nSnCTRi0Pb-50" value="- employees: lit[Employee]" style="text;strokeColor=none;fillColor=none;align=left;verticalAlign=top;spacingLeft=4;spacingRight=4;overflow=hidden;rotatable=0;points=[[0,0.5],[1,0.5]];portConstraint=eastwest;whiteSpace=wrap;html=1;" parent="7iAwqCuJv2nSnCTRi0Pb-36" vertex="1">
          <mxGeometry y="78" width="180" height="26" as="geometry" />
        </mxCell>
        <mxCell id="7iAwqCuJv2nSnCTRi0Pb-51" value="" style="endArrow=open;html=1;endSize=12;startArrow=diamondThin;startSize=14;startFill=0;edgeStyle=orthogonalEdgeStyle;rounded=0;entryX=0.444;entryY=1;entryDx=0;entryDy=0;entryPerimeter=0;exitX=0.444;exitY=0;exitDx=0;exitDy=0;exitPerimeter=0;" parent="1" source="7iAwqCuJv2nSnCTRi0Pb-36" target="7iAwqCuJv2nSnCTRi0Pb-4" edge="1">
          <mxGeometry x="0.075" y="-40" relative="1" as="geometry">
            <mxPoint x="430" y="790" as="sourcePoint" />
            <mxPoint x="430" y="710" as="targetPoint" />
            <mxPoint as="offset" />
          </mxGeometry>
        </mxCell>
        <mxCell id="7iAwqCuJv2nSnCTRi0Pb-52" value="1" style="edgeLabel;resizable=0;html=1;align=left;verticalAlign=top;" parent="7iAwqCuJv2nSnCTRi0Pb-51" connectable="0" vertex="1">
          <mxGeometry x="-1" relative="1" as="geometry">
            <mxPoint x="10" y="-30" as="offset" />
          </mxGeometry>
        </mxCell>
        <mxCell id="7iAwqCuJv2nSnCTRi0Pb-53" value="*" style="edgeLabel;resizable=0;html=1;align=right;verticalAlign=top;" parent="7iAwqCuJv2nSnCTRi0Pb-51" connectable="0" vertex="1">
          <mxGeometry x="1" relative="1" as="geometry">
            <mxPoint x="20" as="offset" />
          </mxGeometry>
        </mxCell>
        <mxCell id="7iAwqCuJv2nSnCTRi0Pb-54" value="" style="endArrow=none;html=1;endSize=12;startArrow=diamondThin;startSize=14;startFill=0;edgeStyle=orthogonalEdgeStyle;rounded=0;exitX=0.444;exitY=0;exitDx=0;exitDy=0;exitPerimeter=0;" parent="1" source="7iAwqCuJv2nSnCTRi0Pb-1" edge="1">
          <mxGeometry x="0.075" y="-40" relative="1" as="geometry">
            <mxPoint x="430" y="500" as="sourcePoint" />
            <mxPoint x="430" y="410" as="targetPoint" />
            <mxPoint as="offset" />
          </mxGeometry>
        </mxCell>
        <mxCell id="7iAwqCuJv2nSnCTRi0Pb-55" value="1" style="edgeLabel;resizable=0;html=1;align=left;verticalAlign=top;" parent="7iAwqCuJv2nSnCTRi0Pb-54" connectable="0" vertex="1">
          <mxGeometry x="-1" relative="1" as="geometry">
            <mxPoint x="10" y="-30" as="offset" />
          </mxGeometry>
        </mxCell>
        <mxCell id="7iAwqCuJv2nSnCTRi0Pb-56" value="*" style="edgeLabel;resizable=0;html=1;align=right;verticalAlign=top;" parent="7iAwqCuJv2nSnCTRi0Pb-54" connectable="0" vertex="1">
          <mxGeometry x="1" relative="1" as="geometry">
            <mxPoint x="50" y="-60" as="offset" />
          </mxGeometry>
        </mxCell>
        <mxCell id="7iAwqCuJv2nSnCTRi0Pb-57" value="" style="endArrow=none;html=1;rounded=0;" parent="1" edge="1">
          <mxGeometry width="50" height="50" relative="1" as="geometry">
            <mxPoint x="230" y="410" as="sourcePoint" />
            <mxPoint x="710" y="410" as="targetPoint" />
          </mxGeometry>
        </mxCell>
        <mxCell id="7iAwqCuJv2nSnCTRi0Pb-58" value="" style="endArrow=classic;html=1;rounded=0;entryX=0.502;entryY=0.986;entryDx=0;entryDy=0;entryPerimeter=0;" parent="1" target="7iAwqCuJv2nSnCTRi0Pb-12" edge="1">
          <mxGeometry width="50" height="50" relative="1" as="geometry">
            <mxPoint x="230" y="410" as="sourcePoint" />
            <mxPoint x="230" y="360" as="targetPoint" />
          </mxGeometry>
        </mxCell>
        <mxCell id="7iAwqCuJv2nSnCTRi0Pb-59" value="" style="endArrow=classic;html=1;rounded=0;entryX=0.502;entryY=0.986;entryDx=0;entryDy=0;entryPerimeter=0;" parent="1" edge="1">
          <mxGeometry width="50" height="50" relative="1" as="geometry">
            <mxPoint x="469.76" y="410" as="sourcePoint" />
            <mxPoint x="469.76" y="352" as="targetPoint" />
          </mxGeometry>
        </mxCell>
        <mxCell id="7iAwqCuJv2nSnCTRi0Pb-60" value="" style="endArrow=classic;html=1;rounded=0;entryX=0.502;entryY=0.986;entryDx=0;entryDy=0;entryPerimeter=0;" parent="1" edge="1">
          <mxGeometry width="50" height="50" relative="1" as="geometry">
            <mxPoint x="710" y="410" as="sourcePoint" />
            <mxPoint x="710" y="352" as="targetPoint" />
          </mxGeometry>
        </mxCell>
        <mxCell id="7iAwqCuJv2nSnCTRi0Pb-61" value="*" style="edgeLabel;resizable=0;html=1;align=right;verticalAlign=top;" parent="1" connectable="0" vertex="1">
          <mxGeometry x="240.00150917627298" y="351.99556691141765" as="geometry" />
        </mxCell>
        <mxCell id="7iAwqCuJv2nSnCTRi0Pb-62" value="*" style="edgeLabel;resizable=0;html=1;align=right;verticalAlign=top;" parent="1" connectable="0" vertex="1">
          <mxGeometry x="720.001509176273" y="351.99556691141765" as="geometry" />
        </mxCell>
        <mxCell id="7iAwqCuJv2nSnCTRi0Pb-64" value="" style="endArrow=block;endSize=16;endFill=0;html=1;rounded=0;entryX=-0.005;entryY=0.887;entryDx=0;entryDy=0;entryPerimeter=0;" parent="1" target="UTytQ0ZPU029c6YnH5y8-3" edge="1">
          <mxGeometry width="160" relative="1" as="geometry">
            <mxPoint x="20" y="60" as="sourcePoint" />
            <mxPoint x="80" y="60" as="targetPoint" />
          </mxGeometry>
        </mxCell>
        <mxCell id="7iAwqCuJv2nSnCTRi0Pb-65" value="" style="endArrow=block;endSize=16;endFill=0;html=1;rounded=0;entryX=0;entryY=0.5;entryDx=0;entryDy=0;" parent="1" target="7iAwqCuJv2nSnCTRi0Pb-24" edge="1">
          <mxGeometry width="160" relative="1" as="geometry">
            <mxPoint x="20" y="160" as="sourcePoint" />
            <mxPoint x="80" y="158" as="targetPoint" />
          </mxGeometry>
        </mxCell>
        <mxCell id="7iAwqCuJv2nSnCTRi0Pb-66" value="" style="endArrow=none;html=1;rounded=0;" parent="1" edge="1">
          <mxGeometry width="50" height="50" relative="1" as="geometry">
            <mxPoint x="20" y="280" as="sourcePoint" />
            <mxPoint x="20" y="60" as="targetPoint" />
          </mxGeometry>
        </mxCell>
        <mxCell id="7iAwqCuJv2nSnCTRi0Pb-67" value="" style="endArrow=none;html=1;rounded=0;entryX=-0.001;entryY=0.546;entryDx=0;entryDy=0;entryPerimeter=0;" parent="1" target="7iAwqCuJv2nSnCTRi0Pb-10" edge="1">
          <mxGeometry width="50" height="50" relative="1" as="geometry">
            <mxPoint x="20" y="280" as="sourcePoint" />
            <mxPoint x="140" y="279" as="targetPoint" />
          </mxGeometry>
        </mxCell>
        <mxCell id="7iAwqCuJv2nSnCTRi0Pb-68" value="" style="endArrow=open;endSize=12;dashed=1;html=1;rounded=0;entryX=-0.002;entryY=0.141;entryDx=0;entryDy=0;entryPerimeter=0;exitX=0.999;exitY=0.088;exitDx=0;exitDy=0;exitPerimeter=0;" parent="1" source="7iAwqCuJv2nSnCTRi0Pb-27" target="7iAwqCuJv2nSnCTRi0Pb-18" edge="1">
          <mxGeometry x="-0.0269" y="40" width="160" relative="1" as="geometry">
            <mxPoint x="260" y="181" as="sourcePoint" />
            <mxPoint x="360" y="180" as="targetPoint" />
            <Array as="points">
              <mxPoint x="360" y="180" />
              <mxPoint x="360" y="270" />
            </Array>
            <mxPoint as="offset" />
          </mxGeometry>
        </mxCell>
        <mxCell id="7iAwqCuJv2nSnCTRi0Pb-70" value="" style="endArrow=none;dashed=1;html=1;rounded=0;exitX=0.998;exitY=0.389;exitDx=0;exitDy=0;exitPerimeter=0;" parent="1" source="7iAwqCuJv2nSnCTRi0Pb-31" edge="1">
          <mxGeometry width="50" height="50" relative="1" as="geometry">
            <mxPoint x="290" y="120" as="sourcePoint" />
            <mxPoint x="360" y="180" as="targetPoint" />
            <Array as="points">
              <mxPoint x="360" y="80" />
            </Array>
          </mxGeometry>
        </mxCell>
        <mxCell id="7iAwqCuJv2nSnCTRi0Pb-71" value="" style="endArrow=open;html=1;endSize=12;startArrow=diamondThin;startSize=14;startFill=0;edgeStyle=orthogonalEdgeStyle;rounded=0;exitX=0.5;exitY=0;exitDx=0;exitDy=0;entryX=0.571;entryY=1.003;entryDx=0;entryDy=0;entryPerimeter=0;" parent="1" source="7iAwqCuJv2nSnCTRi0Pb-14" target="7iAwqCuJv2nSnCTRi0Pb-22" edge="1">
          <mxGeometry x="0.075" y="-40" relative="1" as="geometry">
            <mxPoint x="469.76" y="200" as="sourcePoint" />
            <mxPoint x="470" y="140" as="targetPoint" />
            <mxPoint as="offset" />
          </mxGeometry>
        </mxCell>
        <mxCell id="7iAwqCuJv2nSnCTRi0Pb-72" value="*" style="edgeLabel;resizable=0;html=1;align=left;verticalAlign=top;" parent="7iAwqCuJv2nSnCTRi0Pb-71" connectable="0" vertex="1">
          <mxGeometry x="-1" relative="1" as="geometry">
            <mxPoint x="10" y="-30" as="offset" />
          </mxGeometry>
        </mxCell>
        <mxCell id="7iAwqCuJv2nSnCTRi0Pb-73" value="*" style="edgeLabel;resizable=0;html=1;align=right;verticalAlign=top;" parent="7iAwqCuJv2nSnCTRi0Pb-71" connectable="0" vertex="1">
          <mxGeometry x="1" relative="1" as="geometry">
            <mxPoint x="20" as="offset" />
          </mxGeometry>
        </mxCell>
      </root>
    </mxGraphModel>
  </diagram>
</mxfile>
